<?xml version="1.0" encoding="utf-8"?>
<!-- Generator: Adobe Illustrator 16.0.0, SVG Export Plug-In . SVG Version: 6.00 Build 0)  -->
<!DOCTYPE svg PUBLIC "-//W3C//DTD SVG 1.1//EN" "http://www.w3.org/Graphics/SVG/1.1/DTD/svg11.dtd">
<svg version="1.1" id="Layer_1" xmlns="http://www.w3.org/2000/svg" xmlns:xlink="http://www.w3.org/1999/xlink" x="0px" y="0px"
	 width="300px" height="42.308px" viewBox="0 0 300 42.308" enable-background="new 0 0 300 42.308" xml:space="preserve">
<g>
	<path fill="#010101" d="M31.935,12.704c0,4.429-0.7,9.557-1.516,13.984c-0.465,3.033-1.165,6.995-1.165,9.327
		c0,0.698,0.116,1.165,0.233,1.514c0.233,0.467,0.466,0.815,0.466,1.397c0,1.283-1.282,2.449-2.682,2.449
		c-2.564,0-3.263-3.266-3.263-5.595c0-2.448,0.699-5.711,1.283-9.908c0.698-4.311,1.515-8.856,1.515-12.936
		c0-5.593-3.031-7.691-6.06-7.691c-8.859,0-15.502,13.52-15.502,24.125c0,4.312,1.981,7.343,5.012,7.343
		c3.146,0,5.478-2.796,6.644-5.944c0.349-0.933,1.281-1.515,2.214-1.515c1.516,0,2.448,1.165,2.448,2.564
		c0,1.98-3.73,9.788-12.122,9.788C4.779,41.607,0,38.11,0,29.371C0,17.25,8.392,0.35,21.211,0.35
		C27.855,0.35,31.935,4.663,31.935,12.704z"/>
	<path fill="#010101" d="M89.976,0.699c3.38,0,3.38,5.829,3.38,7.226c0,10.84-7.809,33.1-19.347,33.1
		c-4.43,0-9.44-3.612-9.324-13.169c-2.914,7.808-8.276,13.286-14.219,13.286c-7.342,0-9.44-8.625-9.44-15.618
		c0-7.459,1.514-15.967,2.797-20.979c0.35-1.281,1.398-2.097,2.564-2.097c1.399,0,2.564,1.165,2.564,2.681
		c0,0.231,0,0.349-0.116,0.582c-1.166,4.779-2.564,12.821-2.564,19.813c0,6.645,1.632,10.723,4.545,10.723
		c6.527,0,14.219-14.335,15.501-31.935c0.117-1.398,1.049-2.448,2.214-2.448c1.515,0,2.681,1.167,2.681,2.681
		c0,0.118-0.117,1.865-0.35,3.963c-0.582,5.711-1.399,12.47-1.399,17.016c0,5.128,1.166,10.491,4.779,10.491
		c6.643,0,13.985-17.25,13.985-28.09c0-1.397-0.232-2.68-0.699-3.495c-0.117-0.351-0.233-0.701-0.233-1.05
		c0-0.932,0.7-1.98,1.632-2.332C89.276,0.815,89.627,0.699,89.976,0.699z"/>
	<path fill="#010101" d="M123.427,10.023c0-2.331-1.631-3.962-4.662-3.962c-5.827,0-14.103,7.458-14.103,19.929
		c0,3.963,1.283,11.071,9.674,11.071c3.03,0,6.177-1.398,8.158-3.846c0.466-0.582,1.049-0.931,1.865-0.931
		c1.398,0,2.33,1.165,2.33,2.68c0,2.215-5.594,6.876-12.703,6.876c-8.857,0-14.568-5.944-14.568-15.851
		c0-14.685,10.256-24.942,19.464-24.942c6.992,0,9.789,4.312,9.789,8.975c0,9.206-9.673,13.754-16.549,13.754
		c-1.398,0-2.564-0.934-2.564-2.45c0-1.28,1.049-2.447,2.564-2.562C117.599,18.648,123.427,15.269,123.427,10.023z"/>
	<path fill="#010101" d="M144.755,27.273c0,1.981-1.631,2.33-2.331,2.214c-0.7-0.116-1.049-0.349-1.865-0.349
		c-2.215,0-2.797,1.747-2.797,3.379c0,2.797,3.38,5.593,7.576,5.593c4.195,0,8.624-2.446,8.624-7.69
		c0-2.798-1.397-6.061-6.643-8.858c-3.729-1.98-8.507-5.128-8.507-10.955c0-4.779,3.846-9.791,11.072-9.791
		c6.993,0,9.673,5.012,9.673,6.995c0,1.513-1.165,2.679-2.68,2.679c-0.699,0-1.865-0.582-2.1-1.515
		c-0.348-1.165-1.979-3.729-5.01-3.729c-3.729,0-5.827,2.331-5.827,5.361c0,2.213,1.049,3.613,5.711,6.41
		c5.711,3.38,9.557,6.761,9.557,12.705c0,7.225-5.128,12.587-13.986,12.587c-6.644,0-12.704-3.846-12.704-9.674
		c0-4.896,3.613-8.393,8.042-8.393C142.658,24.242,144.755,24.942,144.755,27.273z"/>
	<path fill="#010101" d="M200.583,15.967c0,12.47-7.344,25.875-19.23,25.875c-8.042,0-13.404-7.108-13.404-17.949
		c0-3.262,0.469-6.294,1.632-9.439c0.351-1.049,1.4-1.865,2.45-1.865c1.396,0,2.446,1.281,2.446,2.563
		c0,0.467-0.117,0.815-0.233,1.166c-0.7,1.748-1.05,5.01-1.05,7.46c0,6.059,2.448,13.168,8.392,13.168
		c8.393,0,13.754-11.073,13.754-20.979c0-4.661-1.865-10.955-7.46-10.955c-4.43,0-5.943,3.729-5.943,6.528
		c0,4.66,3.495,4.66,5.477,4.66c1.517,0,2.682,1.167,2.682,2.566c0,0.698-0.234,2.562-3.146,2.562
		c-6.761,0-10.256-4.427-10.256-9.788c0-5.595,3.962-11.422,11.42-11.422C195.805,0.118,200.583,6.643,200.583,15.967z"/>
	<path fill="#010101" d="M206.876,39.043c0-1.166,0.815-4.311,1.516-7.458c1.398-5.944,3.146-13.87,3.146-20.046
		c0-1.282,0-5.36-1.747-7.109c-0.35-0.583-0.583-1.166-0.583-1.866c0-1.398,1.164-2.564,2.681-2.564
		c2.447,0,5.244,5.012,4.312,12.47c3.613-8.741,8.275-11.655,12.938-11.655c4.078,0,8.974,2.914,9.439,13.404
		c3.03-8.974,7.691-13.638,13.985-13.638c5.245,0.118,9.675,4.896,9.675,17.483c0,8.392-2.1,17.832-3.147,22.028
		c-0.467,1.049-1.398,1.865-2.563,1.865c-1.515,0-2.681-1.283-2.681-2.681c0-0.234,0-0.467,0.116-0.701
		c1.164-3.962,3.146-12.704,3.146-20.278c0-6.41-1.167-12.472-5.129-12.472c-6.526,0-12.586,12.587-14.801,26.224
		c-1.282,7.925-1.398,8.857-3.496,8.857c-1.516,0-2.563-1.282-2.563-2.681c0-0.467,0.581-3.962,1.048-6.409
		c0.815-5.131,1.516-10.024,1.516-14.569c0-2.565-0.117-11.305-5.129-11.305c-6.06,0-12.936,13.519-16.782,33.682
		c-0.234,1.282-1.166,2.099-2.448,2.099C207.81,41.725,206.876,40.56,206.876,39.043z"/>
	<path fill="#010101" d="M294.756,10.023c0-2.331-1.631-3.962-4.663-3.962c-5.827,0-14.102,7.458-14.102,19.929
		c0,3.963,1.282,11.071,9.673,11.071c3.03,0,6.178-1.398,8.16-3.846c0.465-0.582,1.048-0.931,1.863-0.931
		c1.399,0,2.331,1.165,2.331,2.68c0,2.215-5.594,6.876-12.703,6.876c-8.858,0-14.568-5.944-14.568-15.851
		c0-14.685,10.256-24.942,19.464-24.942c6.992,0,9.789,4.312,9.789,8.975c0,9.206-9.673,13.754-16.55,13.754
		c-1.398,0-2.563-0.934-2.563-2.45c0-1.28,1.05-2.447,2.563-2.562C288.927,18.648,294.756,15.269,294.756,10.023z"/>
</g>
</svg>
