<?xml version="1.0" encoding="utf-8"?>
<!-- Generator: Adobe Illustrator 16.0.0, SVG Export Plug-In . SVG Version: 6.00 Build 0)  -->
<!DOCTYPE svg PUBLIC "-//W3C//DTD SVG 1.1//EN" "http://www.w3.org/Graphics/SVG/1.1/DTD/svg11.dtd">
<svg version="1.1" id="Layer_1" xmlns="http://www.w3.org/2000/svg" xmlns:xlink="http://www.w3.org/1999/xlink" x="0px" y="0px"
	 width="300px" height="71.156px" viewBox="0 0 300 71.156" enable-background="new 0 0 300 71.156" xml:space="preserve">
<g>
	<path fill="#010101" d="M31.46,61.767l6.341-29.896c-4.201-1.895-7.413-2.635-11.036-2.965C20.589,42.33,16.06,57.979,16.06,66.543
		c0,2.636,0.658,3.871,1.152,4.612c-4.447,0-11.036-0.165-11.036-8.73c0-7.412,4.942-20.919,12.107-33.519
		c-5.106,0.33-8.565,1.482-9.636,4.283c0.412,0,1.071,1.399,1.071,2.552c0,1.977-2.059,3.212-4.612,3.212
		C2.306,38.954,0,37.39,0,34.177c0-5.601,7.083-10.129,16.801-10.129c1.153,0,2.552,0.082,4.282,0.247
		C29.401,11.117,40.108,0,49.744,0c1.894,0,4.529,0.329,6.506,1.152l-12.93,60.615H31.46z M43.319,5.847
		c-4.941,2.635-10.212,10.295-14.824,19.519c3.294,0.658,6.836,1.564,10.048,2.882L43.319,5.847z"/>
	<path fill="#010101" d="M71.728,20.589L65.798,48.59c-0.165,0.658-0.247,1.399-0.247,2.06c0,1.894,0.576,3.623,2.471,3.623
		c3.211,0,5.354-3.13,6.588-7.248l5.6-26.436H92.07L86.141,48.59c-0.247,1.152-0.412,2.223-0.412,2.965
		c0,1.646,0.824,2.718,2.8,2.718c8.071,0,14.248-18.448,14.248-27.508c-0.247,0.576-1.976,0.824-2.635,0.824
		c-1.976,0-2.965-2.389-2.965-4.201c0-2.552,1.647-4.446,5.106-4.446c3.954,0,5.188,3.541,5.188,7.165
		c0,13.177-6.67,36.154-23.472,36.154c-5.353,0-8.895-2.307-9.883-6.918c-4.036,5.93-8.401,6.918-11.694,6.918
		c-4.942,0-8.812-2.965-8.812-9.883c0-1.565,0.247-3.376,0.659-5.354l5.6-26.436H71.728z"/>
	<path fill="#010101" d="M125.75,55.343c6.506,0,10.459-3.623,14.577-8.318h2.801c-4.695,7.576-11.695,15.236-22.648,15.236
		c-7.742,0-12.848-3.789-12.848-13.096c0-9.472,5.353-29.318,22.236-29.318c7.33,0,9.06,3.789,9.06,7.907
		c0,9.47-9.06,16.8-18.942,17.376c-0.083,1.154-0.166,2.307-0.166,3.295C119.819,54.026,121.796,55.343,125.75,55.343z
		 M130.526,24.213c-4.2,0-8.235,8.812-9.883,16.965c6.341-0.413,11.942-6.754,11.942-13.589
		C132.585,25.529,132.091,24.213,130.526,24.213z"/>
	<path fill="#010101" d="M175.243,47.025c-4.284,4.941-8.813,8.071-12.602,10.294c-3.46,3.624-8.729,4.942-12.93,4.942
		c-8.4,0-12.024-5.519-12.024-10.541c0-3.788,2.141-6.59,4.365-7.66c4.612-8.153,7.576-16.306,10.13-24.377l12.189-1.647
		c0.986,21.331,1.811,24.543,1.811,29.979c0,1.151-0.081,2.141-0.329,3.129c2.224-1.318,4.365-2.801,5.93-4.118H175.243z
		 M144.276,51.06c-0.824,0-1.812-0.247-2.224-1.07c0,3.871,1.4,5.766,5.024,5.766c3.624,0,7.165-1.895,7.165-7.66
		c0-4.281-0.741-6.836-1.565-19.519c-1.646,5.354-3.953,10.295-6.67,15.565c1.071,0.495,1.895,1.482,1.895,2.883
		C147.9,49.002,146.417,51.06,144.276,51.06z"/>
	<path fill="#010101" d="M203.733,33.024c0.33,0.165,0.659,0.165,0.907,0.165c3.788,0,9.14-2.471,12.684-4.942l0.74,2.223
		c-3.13,3.377-8.565,5.848-14.577,6.836c-1.319,15.236-9.554,24.79-19.684,24.79c-7.659,0-13.177-3.625-13.177-13.013
		c0-9.472,5.601-29.237,22.564-29.237C200.274,19.847,203.733,24.377,203.733,33.024z M196.651,37.553
		c-1.729-0.41-2.225-1.812-2.225-3.458c0-2.307,1.072-3.789,2.555-4.447c-0.165-3.459-0.989-4.777-3.13-4.777
		c-5.847,0-10.953,15.072-10.953,23.143c0,5.435,1.07,6.67,4.199,6.67C191.132,54.684,195.332,47.272,196.651,37.553z"/>
	<path fill="#010101" d="M249.026,27.754c-2.964,0-5.188,3.458-6.424,7.576l-5.601,26.437h-11.859l6.013-28.414
		c0.165-0.659,0.246-1.317,0.246-2.059c0-1.811-0.656-3.623-2.471-3.623c-3.211,0-5.436,3.541-6.671,7.659l-5.599,26.437H204.8
		l8.729-41.178h11.86l-0.906,4.282c3.46-3.953,7.166-4.695,10.048-4.695c4.365,0,7.576,1.978,8.481,7.083
		c3.955-6.094,8.401-7.001,11.45-7.001c5.27,0,9.141,2.718,9.141,9.307c0,6.67-3.954,16.636-3.954,21.248
		c0,2.059,0.823,3.46,3.295,3.46c3.624,0,5.106-2.967,6.918-7.248h3.459c-4.611,13.507-10.953,15.236-15.317,15.236
		c-7.166,0-9.72-4.612-9.72-9.306c0-5.601,3.705-15.731,3.705-21.002C251.99,29.236,251.003,27.754,249.026,27.754z"/>
	<path fill="#010101" d="M286,54.437c3.13,0,7.082-2.059,9.718-4.364c-1.729,9.389-7.658,12.188-14.248,12.188
		c-7.659,0-12.764-3.789-12.764-13.096c0-9.472,5.353-29.318,22.235-29.318c7.33,0,9.059,3.789,9.059,7.907
		c0,9.553-9.059,16.8-18.941,17.376c-0.083,0.824-0.164,1.729-0.164,2.471C280.894,52.791,283.117,54.437,286,54.437z M291.6,24.213
		c-4.118,0-8.235,9.141-9.966,16.965c6.425-0.33,12.024-6.671,12.024-13.589C293.659,25.529,293.165,24.213,291.6,24.213z"/>
</g>
</svg>
