<?xml version="1.0" encoding="utf-8"?>
<!-- Generator: Adobe Illustrator 16.0.0, SVG Export Plug-In . SVG Version: 6.00 Build 0)  -->
<!DOCTYPE svg PUBLIC "-//W3C//DTD SVG 1.1//EN" "http://www.w3.org/Graphics/SVG/1.1/DTD/svg11.dtd">
<svg version="1.1" id="Layer_1" xmlns="http://www.w3.org/2000/svg" xmlns:xlink="http://www.w3.org/1999/xlink" x="0px" y="0px"
	 width="300.001px" height="87.924px" viewBox="0 0 300.001 87.924" enable-background="new 0 0 300.001 87.924"
	 xml:space="preserve">
<g>
	<path fill="#010101" d="M15.337,0c2.115,0,4.076,0.396,5.883,1.189c1.806,0.793,3.415,1.896,4.826,3.307
		c1.408,1.411,2.513,3.04,3.306,4.89c0.793,1.852,1.19,3.835,1.19,5.951V85.81c0,1.411-0.707,2.114-2.115,2.114h-4.231
		c-1.412,0-2.117-0.703-2.117-2.114V48.127H8.461V85.81c0,1.411-0.707,2.114-2.115,2.114h-4.23c-0.529,0-1.015-0.198-1.455-0.593
		C0.218,86.934,0,86.429,0,85.81V15.337c0-2.116,0.396-4.099,1.189-5.951c0.793-1.851,1.895-3.479,3.306-4.89
		c1.409-1.411,3.042-2.514,4.892-3.307C11.238,0.396,13.222,0,15.337,0z M26.972,83.959V15.337c0-3.259-1.123-6.037-3.371-8.331
		c-2.247-2.291-5.004-3.436-8.263-3.436c-3.263,0-6.04,1.145-8.331,3.436C4.713,9.3,3.569,12.078,3.569,15.337v68.622
		c0,0.352,0.175,0.528,0.529,0.528h0.265c0.44,0,0.661-0.177,0.661-0.528v-39.27H25.65v39.27c0,0.352,0.175,0.528,0.529,0.528h0.265
		C26.794,84.487,26.972,84.311,26.972,83.959z M15.337,5.024c2.819,0,5.243,1.015,7.271,3.04c2.027,2.03,3.042,4.454,3.042,7.273
		v27.899H5.024V15.337c0-2.82,1.012-5.244,3.041-7.273C10.092,6.039,12.515,5.024,15.337,5.024z M22.079,15.337
		c0-1.938-0.661-3.571-1.982-4.892c-1.323-1.323-2.909-1.984-4.759-1.984c-1.94,0-3.57,0.662-4.893,1.984
		c-1.323,1.321-1.983,2.953-1.983,4.892v24.328h13.618V15.337z"/>
	<path fill="#010101" d="M91.891,0.132c1.409,0,2.115,0.706,2.115,2.116v63.597c0,2.997-0.839,5.818-2.512,8.461l-7.139,12.562
		c-0.442,0.707-1.058,1.056-1.852,1.056h-7.404c-0.792,0-1.411-0.349-1.851-1.056l-5.421-9.653l-5.553,9.653
		c-0.442,0.707-1.058,1.056-1.852,1.056h-7.271c-0.971,0-1.587-0.349-1.851-1.056L44.16,74.306
		c-1.764-2.555-2.644-5.373-2.644-8.461V2.248c0-1.411,0.704-2.116,2.116-2.116h4.23c1.408,0,2.115,0.706,2.115,2.116v63.597
		c0,0.791,0.133,1.498,0.396,2.114l6.348,11.37l6.479-11.37c0.265-0.616,0.396-1.323,0.396-2.114V2.248
		c0-1.411,0.705-2.116,2.117-2.116h4.23c1.409,0,2.116,0.706,2.116,2.116v63.597c0,0.791,0.133,1.498,0.396,2.114l6.348,11.37
		l6.479-11.37c0.086-0.349,0.152-0.681,0.198-0.99c0.043-0.31,0.066-0.682,0.066-1.124V2.248c0-0.616,0.218-1.124,0.661-1.521
		c0.44-0.396,0.925-0.595,1.455-0.595H91.891z M90.569,4.099c0-0.352-0.221-0.528-0.66-0.528h-0.265
		c-0.354,0-0.529,0.176-0.529,0.528v61.612c0,0.619-0.045,1.192-0.133,1.72c-0.088,0.443-0.221,0.972-0.396,1.587
		c-0.177,0.619-0.442,1.189-0.792,1.721l-7.008,12.296h-3.968l-7.007-12.296c-0.618-0.972-0.992-1.938-1.124-2.91
		c-0.133-0.971-0.198-1.632-0.198-1.983v-0.134V4.099c0-0.352-0.177-0.528-0.528-0.528h-0.265c-0.442,0-0.661,0.176-0.661,0.528
		v61.612v0.134c0,0.352-0.066,1.013-0.198,1.983c-0.133,0.972-0.508,1.938-1.124,2.91l-7.008,12.296H54.87l-7.14-12.296
		c-0.353-0.531-0.594-1.102-0.727-1.721c-0.132-0.615-0.244-1.144-0.33-1.587c-0.089-0.527-0.177-1.101-0.265-1.72V4.099
		c0-0.352-0.178-0.528-0.529-0.528h-0.265c-0.354,0-0.529,0.176-0.529,0.528v61.612c0,0.091,0.067,0.752,0.2,1.984
		c0.131,1.237,0.548,2.469,1.255,3.701l7.272,12.693c0.087,0.264,0.308,0.397,0.662,0.397h4.628c0.264,0,0.483-0.134,0.661-0.397
		l7.272-12.693c0.176-0.265,0.308-0.548,0.396-0.857c0.087-0.31,0.22-0.596,0.397-0.86c0.175,0.707,0.44,1.277,0.792,1.718
		l7.14,12.693c0.087,0.264,0.309,0.397,0.662,0.397h4.76c0.264,0,0.483-0.134,0.661-0.397l7.139-12.693
		c0.794-1.232,1.257-2.464,1.39-3.701c0.132-1.232,0.198-1.894,0.198-1.984V4.099z"/>
	<path fill="#010101" d="M113.442,8.461v31.336h11.502c1.41,0,2.115,0.707,2.115,2.116v4.229c0,0.528-0.198,1.017-0.594,1.457
		c-0.396,0.439-0.905,0.661-1.521,0.661h-11.502v31.202h11.502c0.617,0,1.125,0.222,1.521,0.661
		c0.396,0.443,0.594,0.926,0.594,1.453v4.232c0,1.411-0.706,2.114-2.115,2.114h-15.733c-1.235,0-2.248-0.397-3.042-1.188
		c-0.792-0.792-1.188-1.806-1.188-3.04V4.23c0-1.145,0.396-2.136,1.188-2.975C106.963,0.42,107.976,0,109.211,0h15.733
		c0.617,0,1.125,0.22,1.521,0.661c0.396,0.441,0.594,0.925,0.594,1.453v4.232c0,1.411-0.706,2.114-2.115,2.114H113.442z
		 M110.005,43.236V5.024h12.957c0.352,0,0.529-0.176,0.529-0.528V4.099c0-0.352-0.177-0.528-0.529-0.528h-13.75
		c-0.442,0-0.661,0.22-0.661,0.66v79.465c0,0.527,0.219,0.792,0.661,0.792h13.75c0.352,0,0.529-0.177,0.529-0.528v-0.397
		c0-0.352-0.177-0.527-0.529-0.527h-12.957V44.689h12.957c0.352,0,0.529-0.174,0.529-0.528v-0.397c0-0.35-0.177-0.528-0.529-0.528
		H110.005z"/>
	<path fill="#010101" d="M156.81,21.816c-1.411,0-2.114-0.706-2.114-2.116v-4.495c0-1.851-0.662-3.439-1.984-4.76
		c-1.323-1.323-2.91-1.984-4.76-1.984s-3.438,0.662-4.76,1.984c-1.323,1.321-1.983,2.909-1.983,4.76v6.743
		c0,0.793,0.02,1.279,0.066,1.455c0.044,0.178,0.154,0.441,0.332,0.793l19.04,33.582c0.615,1.146,1.101,2.03,1.452,2.646
		c0.353,0.619,0.597,1.189,0.729,1.721c0.132,0.527,0.219,1.081,0.266,1.651c0.042,0.573,0.065,1.346,0.065,2.313v6.61
		c0,2.118-0.397,4.099-1.189,5.949c-0.795,1.854-1.896,3.46-3.307,4.828c-1.411,1.369-3.021,2.447-4.825,3.239
		c-1.809,0.791-3.769,1.188-5.884,1.188s-4.078-0.397-5.883-1.188c-1.808-0.792-3.417-1.87-4.826-3.239
		c-1.412-1.368-2.513-2.975-3.306-4.828c-0.794-1.851-1.19-3.831-1.19-5.949v-4.493c0-0.53,0.198-1.013,0.595-1.456
		c0.396-0.439,0.902-0.661,1.521-0.661h4.23c0.616,0,1.124,0.222,1.521,0.661c0.396,0.443,0.595,0.926,0.595,1.456v4.493
		c0,1.941,0.66,3.571,1.983,4.894c1.322,1.323,2.91,1.984,4.76,1.984s3.437-0.661,4.76-1.984c1.322-1.322,1.984-2.952,1.984-4.894
		v-6.61c0-0.704-0.023-1.144-0.069-1.323c-0.044-0.173-0.152-0.439-0.328-0.791l-19.041-33.585
		c-0.617-1.144-1.103-2.025-1.454-2.642c-0.354-0.617-0.594-1.191-0.727-1.72c-0.132-0.528-0.222-1.101-0.265-1.719
		c-0.045-0.616-0.065-1.409-0.065-2.38v-6.743c0-2.116,0.396-4.076,1.19-5.884c0.792-1.805,1.894-3.415,3.306-4.825
		c1.408-1.411,3.018-2.514,4.826-3.307C143.873,0.396,145.835,0,147.951,0s4.076,0.396,5.884,1.189
		c1.805,0.793,3.414,1.896,4.825,3.307c1.41,1.411,2.512,3.02,3.307,4.825c0.792,1.808,1.189,3.768,1.189,5.884V19.7
		c0,1.411-0.707,2.116-2.114,2.116H156.81z M147.951,5.024c2.822,0,5.243,0.992,7.272,2.975c2.026,1.984,3.041,4.385,3.041,7.207
		v2.644c0,0.354,0.177,0.529,0.53,0.529h0.264c0.352,0,0.527-0.176,0.527-0.529v-2.644c0-3.173-1.124-5.905-3.37-8.199
		c-2.248-2.291-5.003-3.436-8.264-3.436c-3.262,0-6.016,1.145-8.263,3.436c-2.248,2.293-3.372,5.025-3.372,8.199v6.743
		c0,1.676,0.044,2.689,0.132,3.042c0.087,0.441,0.748,1.674,1.984,3.703l18.905,33.582c0.44,0.707,0.706,1.304,0.795,1.785
		c0.085,0.485,0.132,1.17,0.132,2.05v6.61c0,2.825-1.015,5.245-3.041,7.272c-2.029,2.029-4.45,3.043-7.272,3.043
		c-2.822,0-5.246-1.014-7.271-3.043c-2.03-2.027-3.042-4.447-3.042-7.272v-2.512c0-0.349-0.177-0.528-0.528-0.528h-0.265
		c-0.353,0-0.528,0.18-0.528,0.528v2.512c0,3.262,1.124,6.04,3.372,8.331c2.247,2.294,5.001,3.438,8.263,3.438
		c3.261,0,6.016-1.144,8.264-3.438c2.246-2.291,3.37-5.069,3.37-8.331v-6.61c0-1.587-0.045-2.555-0.132-2.909
		c-0.088-0.349-0.285-0.812-0.595-1.389c-0.31-0.57-0.727-1.342-1.256-2.312l-19.04-33.583c-0.44-0.704-0.706-1.323-0.792-1.851
		c-0.089-0.53-0.133-1.233-0.133-2.116v-6.743c0-2.821,1.013-5.223,3.042-7.207C142.705,6.016,145.128,5.024,147.951,5.024z"/>
	<path fill="#010101" d="M188.146,0c2.116,0,4.075,0.396,5.884,1.189c1.805,0.793,3.414,1.896,4.825,3.307
		c1.409,1.411,2.512,3.04,3.307,4.89c0.792,1.852,1.189,3.835,1.189,5.951v57.382c0,2.118-0.397,4.099-1.189,5.949
		c-0.795,1.854-1.897,3.46-3.307,4.828c-1.411,1.369-3.021,2.447-4.825,3.239c-1.809,0.791-3.768,1.188-5.884,1.188
		c-2.114,0-4.099-0.397-5.949-1.188c-1.851-0.792-3.483-1.87-4.894-3.239c-1.411-1.368-2.512-2.975-3.306-4.828
		c-0.793-1.851-1.188-3.831-1.188-5.949V15.337c0-2.116,0.395-4.099,1.188-5.951c0.794-1.851,1.895-3.479,3.306-4.89
		c1.41-1.411,3.043-2.514,4.894-3.307S186.031,0,188.146,0z M199.78,15.337c0-3.259-1.123-6.037-3.371-8.331
		c-2.246-2.291-5.004-3.436-8.264-3.436c-3.262,0-6.039,1.145-8.331,3.436c-2.292,2.293-3.438,5.071-3.438,8.331v57.382
		c0,3.262,1.146,6.04,3.438,8.331c2.292,2.294,5.069,3.438,8.331,3.438c3.26,0,6.018-1.144,8.264-3.438
		c2.248-2.291,3.371-5.069,3.371-8.331V15.337z M188.146,5.024c2.819,0,5.243,1.015,7.271,3.04c2.026,2.03,3.04,4.454,3.04,7.273
		v57.382c0,2.825-1.014,5.245-3.04,7.272c-2.028,2.029-4.452,3.043-7.271,3.043c-2.821,0-5.246-1.014-7.272-3.043
		c-2.028-2.027-3.039-4.447-3.039-7.272V15.337c0-2.82,1.011-5.244,3.039-7.273C182.899,6.039,185.324,5.024,188.146,5.024z
		 M194.888,15.337c0-1.938-0.659-3.571-1.982-4.892c-1.322-1.323-2.909-1.984-4.76-1.984c-1.938,0-3.571,0.662-4.893,1.984
		c-1.322,1.321-1.982,2.953-1.982,4.892v57.382c0,1.851,0.66,3.44,1.982,4.76c1.321,1.323,2.954,1.984,4.893,1.984
		c1.851,0,3.438-0.661,4.76-1.984c1.323-1.319,1.982-2.909,1.982-4.76V15.337z"/>
	<path fill="#010101" d="M251.61,0c2.116,0,4.099,0.396,5.949,1.189c1.853,0.793,3.481,1.896,4.893,3.307
		c1.409,1.411,2.512,3.04,3.307,4.89c0.792,1.852,1.189,3.835,1.189,5.951V85.81c0,0.619-0.222,1.124-0.662,1.521
		c-0.442,0.395-0.925,0.593-1.453,0.593h-4.231c-1.411,0-2.116-0.703-2.116-2.114V15.337c0-1.938-0.66-3.571-1.982-4.892
		c-1.323-1.323-2.955-1.984-4.893-1.984c-1.852,0-3.438,0.662-4.76,1.984c-1.323,1.321-1.982,2.953-1.982,4.892V85.81
		c0,1.411-0.707,2.114-2.116,2.114h-4.23c-1.412,0-2.118-0.703-2.118-2.114V15.337c0-1.938-0.659-3.571-1.982-4.892
		c-1.321-1.323-2.907-1.984-4.758-1.984c-1.94,0-3.571,0.662-4.894,1.984c-1.323,1.321-1.983,2.953-1.983,4.892V85.81
		c0,1.411-0.707,2.114-2.115,2.114h-4.229c-0.531,0-1.017-0.198-1.456-0.593c-0.441-0.397-0.661-0.902-0.661-1.521V15.337
		c0-2.116,0.397-4.099,1.188-5.951c0.795-1.851,1.896-3.479,3.308-4.89c1.408-1.411,3.041-2.514,4.892-3.307S227.547,0,229.663,0
		c2.114,0,4.118,0.42,6.014,1.256c1.895,0.839,3.548,2.005,4.959,3.502c1.409-1.497,3.062-2.664,4.959-3.502
		C247.487,0.42,249.494,0,251.61,0z M263.377,15.337c0-3.259-1.146-6.037-3.438-8.331c-2.293-2.291-5.069-3.436-8.329-3.436
		c-2.558,0-4.826,0.725-6.811,2.18c-1.982,1.455-3.371,3.328-4.164,5.62c-0.793-2.292-2.183-4.166-4.164-5.62
		c-1.983-1.455-4.255-2.18-6.809-2.18c-3.264,0-6.041,1.145-8.331,3.436c-2.294,2.293-3.438,5.071-3.438,8.331v68.488
		c0,0.443,0.176,0.662,0.528,0.662h0.265c0.44,0,0.66-0.219,0.66-0.662V15.337c0-2.82,1.014-5.244,3.043-7.273
		c2.026-2.025,4.449-3.04,7.272-3.04c2.817,0,5.242,1.015,7.271,3.04c2.026,2.03,3.04,4.454,3.04,7.273v68.488
		c0,0.443,0.176,0.662,0.529,0.662h0.266c0.351,0,0.527-0.219,0.527-0.662V15.337c0-2.82,1.014-5.244,3.04-7.273
		c2.028-2.025,4.45-3.04,7.273-3.04c2.82,0,5.244,1.015,7.271,3.04c2.028,2.03,3.043,4.454,3.043,7.273v68.622
		c0,0.352,0.219,0.528,0.661,0.528h0.265c0.352,0,0.527-0.177,0.527-0.528V15.337z"/>
	<path fill="#010101" d="M286.382,8.461v31.336h11.503c1.409,0,2.116,0.707,2.116,2.116v4.229c0,0.528-0.199,1.017-0.595,1.457
		c-0.396,0.439-0.904,0.661-1.521,0.661h-11.503v31.202h11.503c0.617,0,1.126,0.222,1.521,0.661
		c0.396,0.443,0.595,0.926,0.595,1.453v4.232c0,1.411-0.707,2.114-2.116,2.114h-15.733c-1.236,0-2.248-0.397-3.041-1.188
		c-0.794-0.792-1.189-1.806-1.189-3.04V4.23c0-1.145,0.396-2.136,1.189-2.975C279.903,0.42,280.915,0,282.151,0h15.733
		c0.617,0,1.126,0.22,1.521,0.661s0.595,0.925,0.595,1.453v4.232c0,1.411-0.707,2.114-2.116,2.114H286.382z M282.945,43.236V5.024
		h12.957c0.352,0,0.527-0.176,0.527-0.528V4.099c0-0.352-0.176-0.528-0.527-0.528h-13.751c-0.441,0-0.661,0.22-0.661,0.66v79.465
		c0,0.527,0.22,0.792,0.661,0.792h13.751c0.352,0,0.527-0.177,0.527-0.528v-0.397c0-0.352-0.176-0.527-0.527-0.527h-12.957V44.689
		h12.957c0.352,0,0.527-0.174,0.527-0.528v-0.397c0-0.35-0.176-0.528-0.527-0.528H282.945z"/>
</g>
</svg>
