<?xml version="1.0" encoding="utf-8"?>
<!-- Generator: Adobe Illustrator 16.0.0, SVG Export Plug-In . SVG Version: 6.00 Build 0)  -->
<!DOCTYPE svg PUBLIC "-//W3C//DTD SVG 1.1//EN" "http://www.w3.org/Graphics/SVG/1.1/DTD/svg11.dtd">
<svg version="1.1" id="Layer_1" xmlns="http://www.w3.org/2000/svg" xmlns:xlink="http://www.w3.org/1999/xlink" x="0px" y="0px"
	 width="336.765px" height="86.388px" viewBox="0 0 336.765 86.388" enable-background="new 0 0 336.765 86.388"
	 xml:space="preserve">
<g>
	<g>
		<path fill="#565656" d="M49.517,71.125c0.451,1.439,0.019,2.434-1.331,2.864c-2.522,0.807-5.038,1.639-7.547,2.498
			c-1.275,0.437-2.238,0.05-2.69-1.246c-0.653-1.876-1.306-3.752-1.959-5.628c-0.45-1.295-1.364-1.705-2.74-1.218
			c-1.97,0.698-3.937,1.412-5.898,2.142c-1.3,0.483-1.81,1.412-1.324,2.694c0.702,1.857,1.405,3.716,2.107,5.573
			c0.484,1.284,0.06,2.174-1.271,2.685c-2.483,0.955-4.959,1.936-7.428,2.942c-1.256,0.512-2.296,0.056-2.875-1.337
			C12.855,74.148,9.15,65.202,5.444,56.256c-3.297-7.888-5.466-17.264,11.5-23.576c17.041-6.037,21.328,2.566,23.876,10.727
			C43.72,52.646,46.619,61.886,49.517,71.125z M28.306,47.548c-1.079-3.101-2.136-4.502-6.965-2.761
			c-4.822,1.763-4.741,3.519-3.577,6.589c0.88,2.328,1.76,4.655,2.64,6.983c0.462,1.219,1.503,1.63,2.84,1.133
			c2.019-0.751,4.042-1.486,6.07-2.205c1.392-0.566,1.875-1.458,1.425-2.753C29.928,52.206,29.117,49.877,28.306,47.548z"/>
		<path fill="#231F20" d="M40.997,28.367c-0.72-1.285-0.199-2.304,1.4-2.779c3.021-0.897,6.049-1.761,9.084-2.591
			c1.378-0.377,2.533-0.047,2.987,1.038c3.909,8.813,7.725,17.659,11.447,26.536c0.313,0.627,0.884,0.482,0.858-0.219
			c-0.748-9.636-1.383-19.291-1.905-28.961c-0.043-1.189,0.736-2.011,2.124-2.338c2.209-0.519,4.421-1.021,6.636-1.505
			c1.391-0.305,2.449,0.102,2.921,1.193c3.701,8.95,7.291,17.934,10.771,26.95c0.279,0.643,0.854,0.528,0.867-0.173
			c-0.478-9.613-0.859-19.239-1.144-28.875c-0.06-1.175,0.835-1.97,2.234-2.224c3.082-0.558,6.168-1.083,9.258-1.576
			c1.637-0.26,2.54,0.436,2.448,1.905c-0.946,14.959-1.57,29.905-1.873,44.826c-0.006,1.184-0.729,1.937-1.975,2.164
			c-3.253,0.596-6.5,1.232-9.741,1.91c-1.241,0.261-2.127-0.179-2.649-1.257c-2.452-5.22-4.958-10.421-7.516-15.603
			c-0.295-0.636-0.874-0.505-0.864,0.196c-0.071,5.779-0.088,11.552-0.049,17.319c-0.006,1.198-0.617,1.977-1.849,2.278
			c-3.223,0.788-6.438,1.618-9.645,2.49c-1.228,0.333-2.208-0.033-2.728-1.097C55.368,54.65,48.333,41.445,40.997,28.367z"/>
		<path fill="#565656" d="M140.88,8.183c1.573-0.096,2.396,0.546,2.472,1.914c0.144,2.554,0.287,5.108,0.43,7.662
			c0.072,1.302-0.65,2.093-2.179,2.187c-6.166,0.378-12.325,0.89-18.473,1.535c-1.448,0.152-2.211,0.929-2.06,2.292
			c0.08,0.726,0.16,1.453,0.24,2.179c0.144,1.293,1.053,1.949,2.478,1.799c3.881-0.407,7.766-0.76,11.654-1.06
			c1.505-0.115,2.307,0.518,2.404,1.883c0.183,2.552,0.365,5.104,0.548,7.655c0.092,1.299-0.585,2.101-2.047,2.213
			c-3.78,0.291-7.557,0.634-11.329,1.03c-1.387,0.146-2.115,0.917-1.964,2.278c0.081,0.727,0.161,1.453,0.241,2.179
			c0.144,1.294,1.017,1.955,2.381,1.812c5.799-0.608,11.608-1.091,17.424-1.448c1.444-0.088,2.203,0.558,2.279,1.926
			c0.143,2.554,0.286,5.107,0.429,7.661c0.076,1.37-0.585,2.091-1.986,2.176c-9.798,0.602-19.58,1.57-29.323,2.906
			c-1.321,0.182-2.193-0.454-2.377-1.743c-2.063-14.47-4.127-28.941-6.191-43.412c-0.195-1.356,0.567-2.158,2.051-2.362
			C118.912,9.945,129.886,8.858,140.88,8.183z"/>
		<path fill="#231F20" d="M176.395,24.43c-1.519,0.245-2.261-0.38-2.47-1.755c-0.489-2.814-3.001-4.637-6.612-4.632
			c-2.997,0.005-4.817,1.612-4.491,3.183c1.166,5.122,25.033,5.449,24.148,21.382c-0.116,2.131-3.143,13.834-19.603,13.737
			c-14.598,0.106-18.231-8.957-18.877-14.335c-0.133-1.229,0.485-2.015,1.786-2.346c2.722-0.688,5.456-1.35,8.202-1.984
			c1.459-0.308,2.278,0.296,2.446,1.732c0.355,3.283,3.048,5.153,6.427,5.148c3.521-0.005,6.143-1.948,5.738-3.806
			c-1.294-6.027-23.348-4.329-24.159-19.892c-0.174-1.967,0.613-14.442,18.366-14.605c16.323,0.074,19.652,9.665,19.859,14.546
			c0.021,1.237-0.697,1.956-2.072,2.175C182.175,23.433,179.28,23.917,176.395,24.43z"/>
		<path fill="#565656" d="M228.003,44.338c-0.681,4.553-3.497,16.103-19.881,14.279c-16.405-1.557-16.788-13.437-16.529-18.033
			c0.331-5.7,0.661-11.399,0.992-17.099c0.247-4.423,1.984-16.804,20.709-15.033c18.701,2.087,17.893,14.565,17.228,18.944
			C229.682,33.043,228.843,38.691,228.003,44.338z M217.132,29.278c0.617-5.231,0.618-8.505-5.046-9.104
			c-5.668-0.569-6.332,2.636-6.796,7.883c-0.291,3.276-0.582,6.552-0.873,9.829c-0.465,5.264-0.383,8.474,4.914,9.006
			c5.294,0.559,6.032-2.566,6.65-7.814C216.366,35.812,216.749,32.545,217.132,29.278z"/>
		<path fill="#231F20" d="M258.199,16.687c1.395,0.292,2.023,1.128,2.088,2.333c0.424,6.89,0.764,13.773,1.019,20.649
			c-0.005,0.702,0.58,0.836,0.881,0.202c3.229-6.077,6.537-12.123,9.926-18.137c0.583-1.057,1.517-1.535,2.899-1.189
			c5.303,1.327,10.586,2.754,15.849,4.281c1.526,0.444,2.092,1.328,1.702,2.641c-4.149,14.016-8.298,28.032-12.447,42.047
			c-0.37,1.249-1.261,1.77-2.62,1.374c-2.538-0.736-5.081-1.446-7.63-2.131c-1.294-0.347-1.854-1.272-1.525-2.531
			c2.286-8.704,4.572-17.407,6.858-26.111c0.122-0.463-0.524-0.702-0.791-0.277c-4.672,8.2-9.194,16.461-13.566,24.779
			c-0.549,1.064-1.447,1.48-2.683,1.189c-1.511-0.356-3.023-0.704-4.537-1.042c-1.237-0.275-1.863-1.042-1.894-2.239
			c-0.304-9.392-0.766-18.797-1.386-28.212c-0.056-0.499-0.736-0.565-0.829-0.095c-1.738,8.829-3.478,17.659-5.216,26.488
			c-0.253,1.277-1.09,1.879-2.47,1.614c-2.582-0.494-5.167-0.962-7.756-1.403c-1.385-0.236-1.955-1.093-1.743-2.377
			c2.382-14.422,4.763-28.844,7.145-43.266c0.223-1.351,1.111-1.901,2.667-1.636C247.506,14.555,252.861,15.571,258.199,16.687z"/>
		<path fill="#565656" d="M334.53,40.022c1.482,0.605,1.96,1.547,1.435,2.812c-0.979,2.363-1.957,4.727-2.937,7.09
			c-0.5,1.205-1.507,1.598-2.948,1.009c-5.825-2.376-11.689-4.619-17.589-6.728c-1.391-0.497-2.424-0.13-2.878,1.163
			c-0.242,0.689-0.484,1.379-0.727,2.068c-0.431,1.228,0.114,2.215,1.482,2.704c3.722,1.332,7.431,2.716,11.123,4.155
			c1.433,0.559,1.893,1.481,1.388,2.754c-0.941,2.378-1.883,4.757-2.825,7.136c-0.479,1.21-1.449,1.635-2.841,1.093
			c-3.59-1.398-7.194-2.745-10.813-4.039c-1.332-0.476-2.331-0.1-2.784,1.193c-0.242,0.689-0.484,1.379-0.727,2.068
			c-0.432,1.229,0.079,2.205,1.389,2.673c5.564,1.99,11.096,4.105,16.59,6.346c1.361,0.557,1.778,1.473,1.252,2.739
			c-0.979,2.362-1.957,4.726-2.936,7.089c-0.526,1.268-1.447,1.624-2.768,1.085c-9.258-3.776-18.624-7.185-28.077-10.227
			c-1.281-0.412-1.799-1.364-1.407-2.605c4.401-13.939,8.802-27.878,13.203-41.817c0.411-1.306,1.452-1.698,2.892-1.235
			C313.633,31.961,324.142,35.786,334.53,40.022z"/>
	</g>
</g>
</svg>
