<?xml version="1.0" encoding="utf-8"?>
<!-- Generator: Adobe Illustrator 16.0.0, SVG Export Plug-In . SVG Version: 6.00 Build 0)  -->
<!DOCTYPE svg PUBLIC "-//W3C//DTD SVG 1.1//EN" "http://www.w3.org/Graphics/SVG/1.1/DTD/svg11.dtd">
<svg version="1.1" id="Layer_1" xmlns="http://www.w3.org/2000/svg" xmlns:xlink="http://www.w3.org/1999/xlink" x="0px" y="0px"
	 width="300px" height="38.548px" viewBox="0 0 300 38.548" enable-background="new 0 0 300 38.548" xml:space="preserve">
<g>
	<path fill="#010101" d="M25.899,37.875l-1.581-5.181h-0.27c-1.793,2.265-3.599,3.807-5.415,4.626
		c-1.816,0.817-4.149,1.228-6.997,1.228c-3.655,0-6.509-0.987-8.561-2.961C1.025,33.614,0,30.821,0,27.212
		c0-3.834,1.424-6.728,4.272-8.679c2.848-1.951,7.187-3.016,13.017-3.195l6.425-0.202v-1.984c0-2.376-0.555-4.154-1.665-5.332
		c-1.11-1.177-2.831-1.765-5.163-1.765c-1.906,0-3.733,0.28-5.482,0.841C9.654,7.456,7.972,8.118,6.357,8.88L3.801,3.229
		c2.018-1.054,4.227-1.856,6.626-2.405C12.826,0.275,15.091,0,17.221,0c4.732,0,8.303,1.032,10.713,3.095
		c2.411,2.063,3.616,5.303,3.616,9.721v25.059H25.899z M14.127,32.493c2.87,0,5.174-0.803,6.912-2.405
		c1.738-1.604,2.607-3.853,2.607-6.743v-3.23l-4.776,0.202c-3.723,0.134-6.431,0.756-8.123,1.866c-1.693,1.11-2.54,2.809-2.54,5.097
		c0,1.658,0.493,2.942,1.48,3.851C10.673,32.038,12.154,32.493,14.127,32.493z"/>
	<path fill="#010101" d="M73.091,37.875l-4.81-17.357c-0.583-1.838-1.637-6.11-3.162-12.814h-0.302
		c-1.301,6.054-2.333,10.349-3.095,12.882l-4.944,17.29h-8.746L37.605,0.673h8.073l4.742,18.331c1.077,4.53,1.839,8.41,2.288,11.639
		h0.202c0.224-1.639,0.566-3.517,1.026-5.636c0.46-2.119,0.858-3.705,1.194-4.759L60.78,0.673h8.678l5.482,19.576
		c0.337,1.098,0.757,2.781,1.262,5.045c0.504,2.266,0.802,4.025,0.892,5.281h0.269c0.336-2.758,1.121-6.614,2.354-11.571
		l4.81-18.331h7.938L81.971,37.875H73.091z"/>
	<path fill="#010101" d="M115.103,38.548c-5.786,0-10.31-1.689-13.573-5.062c-3.263-3.375-4.894-8.022-4.894-13.943
		c0-6.077,1.514-10.853,4.541-14.329C104.204,1.738,108.363,0,113.656,0c4.91,0,8.79,1.492,11.637,4.474
		c2.848,2.982,4.272,7.085,4.272,12.31v4.271h-24.789c0.112,3.611,1.087,6.385,2.926,8.326c1.839,1.939,4.429,2.908,7.77,2.908
		c2.198,0,4.244-0.207,6.139-0.621c1.895-0.414,3.93-1.104,6.105-2.069v6.425c-1.929,0.919-3.879,1.57-5.853,1.95
		C119.89,38.355,117.636,38.548,115.103,38.548z M113.656,5.988c-2.512,0-4.524,0.796-6.038,2.388
		c-1.514,1.592-2.416,3.914-2.708,6.962h16.885c-0.045-3.072-0.785-5.398-2.22-6.979C118.141,6.778,116.167,5.988,113.656,5.988z"/>
	<path fill="#010101" d="M161.688,28.354c0,3.274-1.245,5.791-3.734,7.553c-2.489,1.761-6.021,2.641-10.595,2.641
		c-4.889,0-8.768-0.753-11.638-2.255v-3.599c3.678,1.839,7.558,2.759,11.638,2.759c3.61,0,6.351-0.6,8.224-1.8
		c1.873-1.199,2.81-2.798,2.81-4.794c0-1.837-0.747-3.385-2.238-4.641c-1.49-1.257-3.94-2.49-7.349-3.701
		c-3.655-1.322-6.223-2.46-7.703-3.414c-1.479-0.953-2.595-2.029-3.347-3.229c-0.751-1.2-1.127-2.663-1.127-4.39
		c0-2.736,1.149-4.9,3.448-6.492c2.298-1.592,5.51-2.389,9.636-2.389c3.946,0,7.692,0.741,11.234,2.22l-1.243,3.027
		c-3.589-1.479-6.919-2.219-9.991-2.219c-2.982,0-5.348,0.493-7.097,1.479c-1.749,0.987-2.624,2.354-2.624,4.104
		c0,1.906,0.678,3.431,2.035,4.575c1.356,1.144,4.008,2.422,7.955,3.834c3.296,1.188,5.695,2.259,7.199,3.212
		c1.502,0.953,2.628,2.034,3.379,3.245C161.312,25.294,161.688,26.72,161.688,28.354z"/>
	<path fill="#010101" d="M201.344,19.542c0,5.966-1.445,10.623-4.338,13.975c-2.894,3.353-6.885,5.03-11.975,5.03
		c-3.207,0-6.031-0.775-8.476-2.321c-2.444-1.548-4.317-3.767-5.617-6.661c-1.301-2.892-1.951-6.232-1.951-10.023
		c0-5.964,1.446-10.612,4.339-13.941c2.893-3.33,6.861-4.996,11.906-4.996c5.024,0,8.965,1.688,11.824,5.062
		C199.915,9.042,201.344,13.667,201.344,19.542z M172.484,19.542c0,5.024,1.106,8.942,3.314,11.755
		c2.208,2.814,5.331,4.223,9.367,4.223c4.035,0,7.158-1.408,9.368-4.223c2.208-2.813,3.312-6.731,3.312-11.755
		c0-5.045-1.115-8.958-3.347-11.738c-2.231-2.781-5.365-4.171-9.4-4.171c-4.037,0-7.149,1.384-9.335,4.154
		C173.579,10.556,172.484,14.475,172.484,19.542z"/>
	<path fill="#010101" d="M257.147,37.875V13.892c0-3.566-0.695-6.167-2.086-7.804c-1.391-1.637-3.521-2.455-6.392-2.455
		c-3.744,0-6.514,1.031-8.308,3.094c-1.793,2.063-2.69,5.303-2.69,9.721v21.427h-3.397V12.883c0-6.167-2.826-9.25-8.476-9.25
		c-3.835,0-6.626,1.115-8.376,3.347c-1.75,2.231-2.624,5.802-2.624,10.713v20.182h-3.33V1.312h2.759l0.706,5.012h0.202
		c1.009-1.816,2.444-3.223,4.306-4.221c1.861-0.998,3.913-1.497,6.155-1.497c5.763,0,9.463,2.164,11.1,6.492h0.135
		c1.188-2.086,2.786-3.688,4.793-4.811c2.006-1.121,4.289-1.682,6.844-1.682c3.992,0,6.985,1.065,8.982,3.195
		c1.995,2.13,2.993,5.517,2.993,10.159v23.916H257.147z"/>
	<path fill="#010101" d="M287.049,38.548c-5.313,0-9.457-1.638-12.429-4.911c-2.971-3.273-4.456-7.859-4.456-13.757
		c0-5.831,1.435-10.5,4.307-14.01c2.868-3.509,6.737-5.264,11.604-5.264c4.304,0,7.702,1.503,10.191,4.507
		C298.755,8.118,300,12.199,300,17.356v2.69h-26.339c0.045,5.023,1.217,8.858,3.517,11.505c2.297,2.645,5.588,3.969,9.871,3.969
		c2.086,0,3.919-0.146,5.499-0.438c1.582-0.291,3.583-0.919,6.005-1.884v3.028c-2.063,0.896-3.969,1.508-5.719,1.832
		C291.086,38.384,289.156,38.548,287.049,38.548z M286.074,3.565c-3.521,0-6.348,1.161-8.477,3.482
		c-2.13,2.32-3.375,5.667-3.732,10.04h22.602c0-4.238-0.92-7.551-2.759-9.939C291.87,4.76,289.326,3.565,286.074,3.565z"/>
</g>
</svg>
